<?xml version="1.0" encoding="UTF-8"?>
<svg id="Layer_1" xmlns="http://www.w3.org/2000/svg" version="1.1" viewBox="0 0 917.8 140.6">
  <!-- Generator: Adobe Illustrator 29.1.0, SVG Export Plug-In . SVG Version: 2.1.0 Build 142)  -->
  <path d="M60.9,98.4c1.3,3.2.9,7.2.3,9.7-1.1,4.4-4,8.9-12.8,8.9s-13.1-4.8-13.1-11.9v-12.6H0v10c0,29.3,23,38.2,47.7,38.2s43.2-8.1,46.3-30c1.6-11.3.4-18.7-.1-21.5-5.5-27.5-55.3-35.7-59-51.1-.5-2.3-.6-4.6-.1-6.9.9-4.2,3.7-8.8,12-8.8s12.2,4.8,12.2,11.9v8.1h32.7v-9.2C91.7,4.5,65.9,0,47.4,0S5,7.7,1.6,29.2c-1.1,5.9-1,11.9.3,17.7,5.7,26.8,52.3,34.6,59.1,51.6Z"/>
  <path d="M487.4,98.1c1,3.1,1,6.4.2,9.6-1,4.4-3.9,8.8-12.6,8.8s-13.1-4.7-13.1-11.8v-12.6h-34.8v10c0,29,22.7,37.8,47.2,37.8s42.8-8,45.9-29.7c1.5-11.2.4-18.5-.2-21.3-5.4-27.2-54.6-35.4-58.4-50.6-.5-2.2-.5-4.5-.1-6.8.9-4.2,3.8-8.8,11.9-8.8s12,4.7,12,11.8v8h32.3v-9.1c0-28.3-25.3-32.7-43.7-32.7s-42,7.6-45.4,28.9c-1.1,5.8-1,11.7.3,17.5,5.6,26.5,51.8,34.2,58.5,51Z"/>
  <path d="M759.5,109.8l-1.8-105.6h32.4v129.8h-46.7l-33.2-109,1.9,109h-32.2V4.2h48.7l30.9,105.6Z"/>
  <path d="M169.9,13.9l-18.3,121.5h-35.4L140.5,4.2h58.3l24.2,131.2h-35.2l-17.9-121.5Z"/>
  <path d="M361.3,13.9l-22.6,121.5h-33.3l-22.6-121.5-.9,121.5h-32.8l2.8-131.2h53.5l16.5,102.6h0l16.6-102.6h53.5l2.9,131.2h-32.9l-.9-121.5Z"/>
  <path d="M597.5,115.8c9.2,0,11.9-6.3,12.6-9.5.3-1.6.4-3.3.3-5V4.2h33.2v94.1c0,2.9,0,5.8-.3,8.7-2.3,24.5-21.6,32.5-45.8,32.5s-43.4-8-45.7-32.5c-.1-1.3-.3-6.2-.3-8.7V4.2h33.2v97.1c0,1.7,0,3.3.3,5,.6,3.3,3.5,9.5,12.5,9.5Z"/>
  <path d="M871.1,114.4c9.5,0,12.9-6,13.4-9.6.3-1.6.4-3.3.3-5v-19h-13.4v-19.1h46.4v35.2c0,2.4-.1,4.3-.5,8.7-2.2,23.9-22.8,32.4-46.1,32.4s-43.9-8.5-46.1-32.4c-.3-2.9-.5-5.8-.5-8.7v-55.2c0-2.4.4-6.4.7-8.7,2.9-24.5,22.8-32.4,46.1-32.4s43.5,7.8,46,32.4c.2,2.9.3,5.8.3,8.7v4.3h-33.1v-7.3c0-1.7-.1-3.4-.4-5.1-.6-2.9-3.1-9.5-13.1-9.5s-12.4,6.3-13,9.5c-.4,2-.6,4.1-.6,6.2v60c0,1.7.1,3.3.3,5,.6,3.5,3.9,9.6,13.4,9.6Z"/>
</svg>